<mxfile host="app.diagrams.net" agent="Mozilla/5.0 (Macintosh; Intel Mac OS X 10_15_7) AppleWebKit/537.36 (KHTML, like Gecko) Chrome/131.0.0.0 Safari/537.36" version="26.0.11">
  <diagram name="第 1 页" id="oVNDmvztu-qrapXRM5BJ">
    <mxGraphModel dx="1242" dy="785" grid="0" gridSize="10" guides="1" tooltips="1" connect="1" arrows="1" fold="1" page="1" pageScale="1" pageWidth="827" pageHeight="1169" math="0" shadow="0">
      <root>
        <mxCell id="0" />
        <mxCell id="1" parent="0" />
        <mxCell id="lu8kf9NNv5I0NGM0YdXV-1" value="用户" style="shape=umlActor;verticalLabelPosition=bottom;verticalAlign=top;html=1;" vertex="1" parent="1">
          <mxGeometry x="115" y="355" width="30" height="60" as="geometry" />
        </mxCell>
        <mxCell id="lu8kf9NNv5I0NGM0YdXV-2" value="" style="rounded=0;whiteSpace=wrap;html=1;" vertex="1" parent="1">
          <mxGeometry x="213" y="65" width="435" height="644" as="geometry" />
        </mxCell>
        <mxCell id="lu8kf9NNv5I0NGM0YdXV-3" value="devops集成模块" style="text;html=1;align=center;verticalAlign=middle;whiteSpace=wrap;rounded=0;" vertex="1" parent="1">
          <mxGeometry x="381" y="65" width="99" height="30" as="geometry" />
        </mxCell>
        <mxCell id="lu8kf9NNv5I0NGM0YdXV-4" value="编辑串行工作流流程" style="ellipse;whiteSpace=wrap;html=1;" vertex="1" parent="1">
          <mxGeometry x="421" y="213" width="100" height="50" as="geometry" />
        </mxCell>
        <mxCell id="lu8kf9NNv5I0NGM0YdXV-5" value="关联企业微信" style="ellipse;whiteSpace=wrap;html=1;" vertex="1" parent="1">
          <mxGeometry x="242" y="235" width="100" height="50" as="geometry" />
        </mxCell>
        <mxCell id="lu8kf9NNv5I0NGM0YdXV-8" value="关联腾讯会议" style="ellipse;whiteSpace=wrap;html=1;" vertex="1" parent="1">
          <mxGeometry x="242" y="432" width="100" height="50" as="geometry" />
        </mxCell>
        <mxCell id="lu8kf9NNv5I0NGM0YdXV-9" value="" style="endArrow=none;html=1;rounded=0;exitX=1;exitY=0.3333333333333333;exitDx=0;exitDy=0;exitPerimeter=0;entryX=0;entryY=0.5;entryDx=0;entryDy=0;" edge="1" parent="1" source="lu8kf9NNv5I0NGM0YdXV-1" target="lu8kf9NNv5I0NGM0YdXV-5">
          <mxGeometry width="50" height="50" relative="1" as="geometry">
            <mxPoint x="142" y="385" as="sourcePoint" />
            <mxPoint x="224" y="370" as="targetPoint" />
          </mxGeometry>
        </mxCell>
        <mxCell id="lu8kf9NNv5I0NGM0YdXV-10" value="选择工作流状态" style="ellipse;whiteSpace=wrap;html=1;" vertex="1" parent="1">
          <mxGeometry x="414" y="118" width="100" height="50" as="geometry" />
        </mxCell>
        <mxCell id="lu8kf9NNv5I0NGM0YdXV-13" value="" style="endArrow=none;html=1;rounded=0;exitX=1;exitY=0.3333333333333333;exitDx=0;exitDy=0;exitPerimeter=0;entryX=0;entryY=0.5;entryDx=0;entryDy=0;" edge="1" parent="1" source="lu8kf9NNv5I0NGM0YdXV-1" target="lu8kf9NNv5I0NGM0YdXV-8">
          <mxGeometry width="50" height="50" relative="1" as="geometry">
            <mxPoint x="142" y="385" as="sourcePoint" />
            <mxPoint x="252" y="289" as="targetPoint" />
          </mxGeometry>
        </mxCell>
        <mxCell id="lu8kf9NNv5I0NGM0YdXV-26" value="关联jenkins" style="ellipse;whiteSpace=wrap;html=1;" vertex="1" parent="1">
          <mxGeometry x="242" y="118" width="100" height="50" as="geometry" />
        </mxCell>
        <mxCell id="lu8kf9NNv5I0NGM0YdXV-28" value="关联Github" style="ellipse;whiteSpace=wrap;html=1;" vertex="1" parent="1">
          <mxGeometry x="242" y="362" width="100" height="50" as="geometry" />
        </mxCell>
        <mxCell id="lu8kf9NNv5I0NGM0YdXV-29" value="关联Gitlab" style="ellipse;whiteSpace=wrap;html=1;" vertex="1" parent="1">
          <mxGeometry x="244" y="301" width="100" height="50" as="geometry" />
        </mxCell>
      </root>
    </mxGraphModel>
  </diagram>
</mxfile>
